<?xml version="1.0" standalone="no"?>
<!DOCTYPE svg PUBLIC "-//W3C//DTD SVG 20010904//EN"
 "http://www.w3.org/TR/2001/REC-SVG-20010904/DTD/svg10.dtd">
<svg version="1.0" xmlns="http://www.w3.org/2000/svg"
 width="512.000000pt" height="512.000000pt" viewBox="0 0 512.000000 512.000000"
 preserveAspectRatio="xMidYMid meet">

<g transform="translate(0.000000,512.000000) scale(0.100000,-0.100000)"
fill="#000000" stroke="none">
<path d="M76 5096 c-22 -13 -47 -39 -57 -57 -17 -32 -18 -144 -19 -2478 l0
-2443 21 -38 c12 -21 38 -47 59 -59 l38 -21 2441 0 c2378 0 2443 0 2479 19 22
11 46 35 60 59 l22 40 0 2282 0 2282 -22 39 c-14 25 -37 46 -63 59 -41 20 -62
20 -1507 20 l-1465 0 -91 128 c-99 139 -123 165 -165 181 -19 8 -295 11 -860
11 l-832 0 -39 -24z m1974 -798 c205 -288 386 -537 402 -555 18 -18 48 -36 74
-42 30 -8 388 -11 1168 -11 l1126 0 0 -1695 0 -1695 -804 0 -803 0 -6 242 c-6
262 -15 328 -67 484 -103 308 -338 584 -618 725 -48 24 -89 45 -90 46 -2 1 19
30 47 64 177 220 210 509 86 764 -78 161 -176 260 -330 335 -289 140 -650 65
-851 -178 -226 -272 -230 -652 -12 -922 37 -45 48 -65 38 -68 -34 -12 -151
-79 -219 -125 -263 -182 -448 -463 -522 -792 -16 -71 -22 -141 -26 -332 l-6
-243 -168 0 -169 0 0 2260 0 2260 689 0 689 0 372 -522z m2770 -48 l0 -250
-1093 0 -1093 0 -129 182 c-72 100 -152 213 -178 250 l-48 68 1270 0 1271 0 0
-250z m-2716 -1564 c89 -44 155 -111 199 -204 29 -61 32 -75 32 -167 0 -92 -3
-106 -32 -167 -155 -329 -601 -328 -756 0 -29 61 -32 75 -32 167 0 92 3 106
32 167 40 85 106 156 182 197 79 42 121 51 219 47 72 -3 94 -9 156 -40z m58
-1115 c318 -82 583 -324 690 -631 40 -115 49 -182 55 -413 l6 -227 -987 0
-986 0 0 168 c0 334 40 500 166 688 163 246 407 392 729 438 64 9 253 -4 327
-23z"/>
<path d="M1050 4298 c-67 -34 -90 -86 -90 -204 l0 -92 -103 -4 c-125 -4 -161
-21 -196 -91 -26 -53 -24 -91 9 -144 31 -51 71 -66 188 -71 l102 -4 0 -82 c0
-140 32 -201 119 -227 37 -11 47 -10 89 7 76 32 92 65 92 194 l0 108 108 3
c85 3 114 8 142 24 97 58 97 202 0 260 -28 16 -57 21 -142 24 l-108 3 0 107
c0 126 -15 161 -83 191 -54 25 -73 25 -127 -2z"/>
<path d="M3118 3245 c-72 -48 -86 -150 -31 -216 51 -60 38 -59 678 -59 640 0
627 -1 677 58 39 47 45 103 16 159 -44 87 -9 83 -698 83 l-605 0 -37 -25z"/>
<path d="M3130 2608 c-45 -31 -69 -66 -76 -110 -9 -53 25 -118 75 -146 39 -22
40 -22 638 -22 l600 0 33 23 c54 36 75 72 75 127 0 55 -21 91 -75 128 l-33 22
-602 0 -602 0 -33 -22z"/>
</g>
</svg>
