<svg class="svg-icon" style="width: 1em; height: 1em;vertical-align: middle;fill: currentColor;overflow: hidden;" viewBox="0 0 1024 1024" version="1.1" xmlns="http://www.w3.org/2000/svg"><path d="M810.666667 384a128 128 0 0 0-120.32 85.333333H128a42.666667 42.666667 0 0 0 0 85.333334h562.346667A128 128 0 1 0 810.666667 384zM128 298.666667h50.346667a128 128 0 0 0 240.64 0H896a42.666667 42.666667 0 0 0 0-85.333334H418.986667a128 128 0 0 0-240.64 0H128a42.666667 42.666667 0 0 0 0 85.333334zM896 725.333333h-306.346667a128 128 0 0 0-240.64 0H128a42.666667 42.666667 0 0 0 0 85.333334h221.013333a128 128 0 0 0 240.64 0H896a42.666667 42.666667 0 0 0 0-85.333334z"  /></svg>