<?xml version="1.0" standalone="no"?>
<!DOCTYPE svg PUBLIC "-//W3C//DTD SVG 20010904//EN"
 "http://www.w3.org/TR/2001/REC-SVG-20010904/DTD/svg10.dtd">
<svg version="1.0" xmlns="http://www.w3.org/2000/svg"
 width="512.000000pt" height="512.000000pt" viewBox="0 0 512.000000 512.000000"
 preserveAspectRatio="xMidYMid meet">

<g transform="translate(0.000000,512.000000) scale(0.100000,-0.100000)"
fill="#000000" stroke="none">
<path d="M1140 4464 c-234 -50 -436 -254 -485 -489 -22 -105 -22 -2725 0
-2830 50 -237 252 -439 491 -490 103 -22 2724 -22 2829 0 181 38 349 168 433
335 75 151 72 67 72 1570 0 1503 3 1419 -72 1570 -84 167 -252 297 -433 335
-102 21 -2736 21 -2835 -1z m2816 -446 c21 -15 50 -44 64 -65 l25 -37 0 -1356
0 -1356 -25 -37 c-14 -21 -43 -50 -64 -65 l-39 -27 -1357 0 -1356 0 -37 25
c-21 14 -50 43 -65 64 l-27 39 0 1358 0 1357 30 43 c17 23 50 53 74 66 l45 23
1346 -2 1347 -3 39 -27z"/>
<path d="M3214 3394 c-17 -8 -43 -27 -57 -42 -14 -15 -204 -263 -422 -552
-218 -289 -401 -525 -405 -525 -5 0 -88 102 -185 227 -97 125 -191 239 -208
252 -103 79 -255 39 -313 -81 -23 -45 -26 -62 -21 -109 4 -35 15 -70 30 -93
71 -106 552 -707 584 -730 33 -22 48 -26 113 -26 60 0 82 4 111 23 44 27 1046
1336 1066 1392 35 100 -11 211 -108 261 -47 23 -141 25 -185 3z"/>
</g>
</svg>
